<svg xmlns="http://www.w3.org/2000/svg" width="32" height="32" viewBox="0 0 38 38" id="svgid24" repair="1" xmlns:xlink="http://www.w3.org/1999/xlink"><path id="MTBteHkxNzIxMDAwMDAwMDAwMHh6czUxOA" fill="rgb(187,196,201)" d="M34.077 14l3.73 9.95c.35.92.22 1.95-.34 2.76-.562.81-1.48 1.29-2.47 1.29H11.3l5.21-14h17.567z" class="stshockcolor" data-st="fill:#BBC4C9;;" coriginal="rgb(187,196,201)" colortype="2" awdzp="2"></path><path fill="rgb(35,31,32)" d="M37.467 26.71c-.56.81-1.48 1.29-2.47 1.29H2.984c-.98-.01-1.89-.49-2.45-1.29-.56-.81-.69-1.84-.34-2.76l4.5-12c.43-1.17 1.56-1.95 2.81-1.95h.05l-5.49 14.65c-.12.31-.08.65.11.92s.49.43.83.43h31.993c.34 0 .64-.16.83-.43.18-.27.23-.61.11-.92L31.947 14l-.51-1.35c-.15-.39-.52-.65-.94-.65H8.943l.75-2h20.803c1.25 0 2.38.78 2.81 1.95l.77 2.05 3.73 9.95c.35.92.22 1.95-.34 2.76zM21.75 22.82c-.4.12-.82.18-1.25.18-2.49 0-4.5-2.01-4.5-4.5s2.01-4.5 4.5-4.5c.43 0 .85.06 1.25.18-1.88.54-3.25 2.26-3.25 4.32 0 2.06 1.37 3.78 3.25 4.32z" class="st0" opacity=".8" coriginal="rgb(35,31,32)" colortype="12" awdzp="12"></path></svg>