<svg xmlns="http://www.w3.org/2000/svg" width="32" height="32" viewBox="0 0 38 38" id="svgid14" repair="1" xmlns:xlink="http://www.w3.org/1999/xlink"><path id="MTBteHkzMDExMDAwMDAwMDAwMHh6czkxNw" fill="rgb(247,199,104)" d="M12.048 21h13.905L32 16.162V11.2L19 4.267 6 11.2v4.962z" class="stshockcolor" data-st="fill:#F7C768;;" coriginal="rgb(247,199,104)" colortype="4" awdzp="4"></path><path fill="rgb(35,31,32)" d="M34.94 8.235l-15-8C19.648.08 19.325 0 19 0s-.647.08-.94.235l-15 8C2.406 8.583 2 9.26 2 10v2.962L10.798 20 6 23.84v2.56l6.75-5.4h12.5L32 26.4v-2.563L27.203 20 34 14.562V30H4V17.123l-2-1.6V30c0 1.104.896 2 2 2h30c1.104 0 2-.896 2-2V10c0-.74-.407-1.417-1.06-1.765zM34 12l-8.75 7h-12.5L4 12v-2l15-8 15 8v2z" class="st0" opacity=".8" coriginal="rgb(35,31,32)" colortype="12" awdzp="12"></path></svg>