<svg xmlns="http://www.w3.org/2000/svg" width="32" height="32" viewBox="0 0 38 38" id="svgid10" repair="1" xmlns:xlink="http://www.w3.org/1999/xlink"><path id="MTBteHk3MjIxMDAwMDAwMDAwMHh6czE3NQ" fill="rgb(142,165,222)" d="M18 35.535l-7.058-7.058-3.735 3.73-1.414-1.415 7.937-7.936c.255.214.508.43.745.668C16.815 25.866 18 29.094 18 33.12v2.415zm13.957-12.992l5.75 5.75c.39.39.39 1.023 0 1.414l-6 6c-.195.195-.45.293-.707.293s-.512-.098-.707-.293l-5.79-5.79 7.454-7.374zm-17.4-2.573l-6.512-6.515 7.412-7.412 6.457 6.457-6.784 6.784c-.234.234-.417.46-.574.686z" class="stshockcolor" data-st="fill:#8EA5DE;;" coriginal="rgb(142,165,222)" colortype="8" awdzp="8"></path><path fill="rgb(35,31,32)" d="M37.707 28.293L26.914 17.5l4.5-4.5L25 6.586l-10.5 10.5L4.414 7 9 2.414l8.672 8.672 1.414-1.414-9.38-9.38c-.39-.39-1.022-.39-1.413 0l-6 6c-.39.392-.39 1.024 0 1.415L13.125 18.54c-.76.964-1.125 1.97-1.125 3.118C10.02 20.556 7.638 20 4.88 20H2.466L18 35.535V33.12c0-2.757-.556-5.14-1.658-7.12 1.147 0 2.155-.366 3.12-1.125l10.832 10.832c.194.195.45.293.706.293s.512-.098.707-.293l6-6c.39-.39.39-1.023 0-1.414zM7.497 22.2c2.273.378 4.108 1.283 5.564 2.74 1.46 1.456 2.37 3.29 2.74 5.564L7.5 22.2zm8.84 1.8c-.934 0-1.71-.34-1.857-.47l-.002-.002c-.137-.155-.478-.932-.478-1.866 0-.875.338-1.586 1.13-2.378L25 9.414 28.586 13 19.5 22.086l-2.172-2.172-1.414 1.414 2.116 2.116c-.54.376-1.075.556-1.692.556zM31 33.586L20.914 23.5l4.586-4.586L35.586 29 31 33.586z" class="st0" opacity=".8" coriginal="rgb(35,31,32)" colortype="12" awdzp="12"></path></svg>