<svg xmlns="http://www.w3.org/2000/svg" width="32" height="32" viewBox="0 0 38 38" id="svgid4" repair="1" xmlns:xlink="http://www.w3.org/1999/xlink"><ellipse id="MTBteHk2NDgxMDAwMDAwMDAwMHh6czM4" cx="19" cy="17" fill="rgb(255,175,110)" class="stshockcolor" rx="13" ry="9" data-st="fill:#FFAF6E;;" coriginal="rgb(255,175,110)" colortype="5" awdzp="5"></ellipse><path fill="rgb(35,31,32)" d="M19 2C8.52 2 0 8.73 0 17c0 5.37 3.61 10.07 9 12.72v-2.24C4.77 25.12 2 21.31 2 17 2 9.83 9.63 4 19 4s17 5.83 17 13-7.63 13-17 13c-.9 0-1.79-.07-2.65-.17L13 33.17v-4.02c-.69-.2-1.36-.44-2-.71V38l6.08-6.08c.63.05 1.27.08 1.92.08 10.48 0 19-6.73 19-15S29.48 2 19 2zm1 18h-2V10h2v10zm0 4h-2v-2h2v2z" class="st0" opacity=".8" coriginal="rgb(35,31,32)" colortype="12" awdzp="12"></path></svg>