<svg xmlns="http://www.w3.org/2000/svg" width="32" height="32" viewBox="0 0 38 38" id="svgid12" repair="1" xmlns:xlink="http://www.w3.org/1999/xlink"><path fill="rgb(170,170,170)" d="M33.857 30H8.143L6.5 18h29.077l-1.72 12z" class="st0 stshockcolor" data-st="fill:#AAAAAA;;" coriginal="rgb(170,170,170)" colortype="9" awdzp="9"></path><path fill="rgb(255,216,120)" d="M10.424 16c-.27-.614-.424-1.288-.424-2 0-2.757 2.243-5 5-5v7h-4.576zM25 2c-2.757 0-5 2.243-5 5s2.243 5 5 5V2z" class="st1" coriginal="rgb(255,216,120)" colortype="1" awdzp="1"></path><path fill="rgb(35,31,32)" d="M36.153 14H20c0-2.757-2.243-5-5-5s-5 2.243-5 5H1.847L3.56 26h2.02L4.154 16h29.694l-1.714 12H2v2h7.537C9.195 30.59 9 31.272 9 32c0 2.206 1.794 4 4 4s4-1.794 4-4c0-.728-.195-1.41-.537-2h5.074c-.342.59-.537 1.272-.537 2 0 2.206 1.794 4 4 4s4-1.794 4-4c0-.728-.195-1.41-.537-2H36v-2h-1.847l2-14zM12 14c0-1.654 1.346-3 3-3s3 1.346 3 3h-6zm1 20c-1.103 0-2-.897-2-2s.897-2 2-2 2 .897 2 2-.897 2-2 2zm12 0c-1.103 0-2-.897-2-2s.897-2 2-2 2 .897 2 2-.897 2-2 2zm0-22c2.757 0 5-2.243 5-5s-2.243-5-5-5-5 2.243-5 5 2.243 5 5 5zm0-8c1.654 0 3 1.346 3 3s-1.346 3-3 3-3-1.346-3-3 1.346-3 3-3z" class="st2" opacity=".8" coriginal="rgb(35,31,32)" colortype="12" awdzp="12"></path></svg>