<svg xmlns="http://www.w3.org/2000/svg" width="32" height="32" viewBox="0 0 38 38" id="svgid7" repair="1" xmlns:xlink="http://www.w3.org/1999/xlink"><path fill="rgb(239,101,101)" d="M9 20h16v8H9v-8z" class="st0 stshockcolor" data-st="fill:#EF6565;;" coriginal="rgb(239,101,101)" colortype="10" awdzp="10"></path><path fill="rgb(35,31,32)" d="M11.518 32.004l-1 1.732c-2.578-1.486-4.732-3.633-6.228-6.21l1.73-1.003c1.32 2.273 3.22 4.168 5.498 5.48zm-7.263-21.47C2.78 13.1 2 16.027 2 19v.034L4 19c0-2.625.688-5.207 1.988-7.468l-1.733-.997zM19.015 34l.003 2c2.986 0 5.923-.79 8.494-2.28l-1.002-1.73C24.242 33.305 21.65 34 19.016 34zm-.063-30l-.007-2c-2.986.01-5.92.806-8.49 2.3l1.008 1.73c2.265-1.32 4.854-2.02 7.49-2.03zM34 19c0 2.637-.693 5.23-2.004 7.496l1.73 1.002c1.487-2.572 2.273-5.51 2.272-8.54L34 19zM27.45 4.246l-.997 1.734c2.28 1.308 4.185 3.2 5.51 5.47l1.727-1.01c-1.502-2.57-3.66-4.712-6.24-6.194zM13 14c0-3.31 2.69-6 6-6s6 2.69 6 6h2c0-4.41-3.59-8-8-8s-8 3.59-8 8v2H9v12h16v-2H11v-8h16v10h2V16H13v-2zm7 11v-2.278c.595-.347 1-.985 1-1.722 0-1.103-.897-2-2-2s-2 .897-2 2c0 .737.405 1.375 1 1.722V25h2z" class="st1" opacity=".8" coriginal="rgb(35,31,32)" colortype="12" awdzp="12"></path></svg>