<svg xmlns="http://www.w3.org/2000/svg" width="32" height="32" viewBox="0 0 38 38" id="svgid6" repair="1" xmlns:xlink="http://www.w3.org/1999/xlink"><path fill="rgb(247,199,104)" d="M32 15c0 3.4-1.9 6.4-4.7 7.9-.9-1.7-2.8-2.9-4.8-2.9-.4 0-.9.1-1.3.2-.3.1-.6 0-.8-.1-.2-.2-.4-.4-.4-.7 0-.2-.1-.4-.1-.5.9.7 2 1.2 3.2 1.2 2.8 0 5-2.2 5-5s-2.2-5-5-5-5 2.2-5 5c0 .3 0 .5.1.8-1.1-1-2.5-1.7-4-1.8.5-4.5 4.3-8 8.9-8C28 6 32 10 32 15zM24 0h-2v4h2V0zm7.5 7.9l-1.4-1.4 2.8-2.8 1.4 1.4-2.8 2.8zM38 14v2h-4v-2h4zM14.5 7.9l-2.8-2.8 1.4-1.4 2.8 2.8-1.4 1.4z" class="stshockcolor" data-st="fill:#F7C768;;" coriginal="rgb(247,199,104)" colortype="4" awdzp="4"></path><path fill="rgb(35,31,32)" d="M36 29c0 2.8-2.2 5-5 5H7.4C3.3 34 0 30.7 0 26.6c0-3.7 2-6.4 5.5-7.5.5-3.6 3.3-6.4 6.9-7 0 .1-.1.2-.1.4-.1.6-.2 1.2-.2 1.8-2.5.7-4.4 3-4.6 5.7 0 .5-.4.9-.8.9-3.8 1-4.6 3.7-4.6 5.8 0 3 2.4 5.4 5.4 5.4H31c1.7 0 3-1.3 3-3s-1.3-3-3-3h-2c-.5 0-1-.4-1-.9-.2-2.8-2.6-5.1-5.5-5.1-.4 0-.9.1-1.3.2-.3.1-.6 0-.8-.1-.2-.2-.4-.4-.4-.7-.4-2.9-2.9-5.2-5.9-5.3 0-.4.1-.7.2-1.1l.3-.9c1.2-3.6 4.6-6 8.5-6 5 0 9 4 9 9 0 2.6-1.1 5-3 6.7.4.7.7 1.5.9 2.3h1c2.8-.2 5 2 5 4.8zm-6-14c0-3.9-3.1-7-7-7-2.9 0-5.5 1.8-6.5 4.5 2.5.9 4.5 3 5.2 5.6h.8c2 0 3.9.8 5.2 2.2C29.2 18.8 30 17 30 15z" class="st1" opacity=".8" coriginal="rgb(35,31,32)" colortype="12" awdzp="12"></path></svg>