<svg xmlns="http://www.w3.org/2000/svg" width="32" height="32" viewBox="0 0 38 38" id="svgid3" repair="1" xmlns:xlink="http://www.w3.org/1999/xlink"><path id="MTBteHkyNTIxMDAwMDAwMDAwMHh6czk5Ng" fill="rgb(133,195,222)" d="M21.745 6.296c-.556 2.795-1.992 4.606-2.798 5.41-.772-.504-2.107-1.16-3.827-1.16-1.456 0-2.76.86-3.32 2.19-.07.165-.125.332-.168.5-1.088-.962-1.818-1.798-2.23-2.98C7.292 12.566 6 15.628 6 19c0 7.18 5.82 13 13 13s13-5.82 13-13c0-6.237-4.395-11.443-10.255-12.704zm2.69 19.516c-.45.754-.935 1.563-1.39 2.483-1.667-4.2-3.185-6.91-5.138-9.198C18.58 18.61 19.687 18 21 18c2.575 0 5 2.254 5 4 0 1.192-.69 2.35-1.565 3.812z" class="stshockcolor" data-st="fill:#85C3DE;;" coriginal="rgb(133,195,222)" colortype="6" awdzp="6"></path><path fill="rgb(35,31,32)" d="M19 2c-4.692 0-8.946 1.91-12.025 4.995v.3c0 4.666 1.913 6.27 4.56 8.487 1.222 1.023 2.606 2.182 4.214 3.9 2.46 2.63 4.17 5.79 6.31 11.66.14.395.52.658.94.658h.01c.42-.006.8-.28.93-.683.602-1.803 1.452-3.225 2.202-4.48C27.142 25.177 28 23.745 28 22c0-3.028-3.468-6-7-6-1.984 0-3.568.937-4.46 1.62-.915-.932-1.765-1.702-2.533-2.366-.682-.728-.482-1.457-.363-1.74.197-.467.688-.967 1.477-.967 1.91 0 3.18 1.167 3.19 1.174.36.34.9.38 1.3.08.17-.12 4.01-3.08 4.366-8.93C29.8 6.92 34 12.48 34 19c0 8.27-6.73 15-15 15S4 27.27 4 19c0-2.542.644-4.932 1.767-7.03-.314-.786-.55-1.673-.678-2.71C3.15 12.02 2 15.375 2 19c0 9.374 7.626 17 17 17s17-7.626 17-17S28.374 2 19 2zm2 16c2.575 0 5 2.254 5 4 0 1.192-.69 2.35-1.565 3.812-.45.754-.935 1.563-1.39 2.483-1.667-4.2-3.185-6.91-5.138-9.198C18.58 18.61 19.687 18 21 18zm-2.053-6.292c-.772-.505-2.107-1.16-3.827-1.16-1.456 0-2.76.86-3.32 2.19-.07.164-.125.33-.168.5-1.698-1.502-2.534-2.686-2.636-5.382C11.653 5.466 15.154 4 19 4c1.02 0 2.018.104 2.98.3-.097 3.962-2.048 6.424-3.033 7.408z" class="st0" opacity=".8" coriginal="rgb(35,31,32)" colortype="12" awdzp="12"></path></svg>