<svg xmlns="http://www.w3.org/2000/svg" width="32" height="32" viewBox="0 0 38 38" id="svgid1" repair="1" xmlns:xlink="http://www.w3.org/1999/xlink"><path id="MTBteHk3NzEwMDAwMDAwMDAweHpzNzQ1" fill="rgb(187,196,201)" d="M34.8 11.9l1.2 1.6-5.3 4.3c-.6.5-1.6.6-2.3.2-.2-.1-.3-.2-.5-.4l-3-3L31.5 8c1.5 1.4 2.6 3.1 3.3 3.9zM19 26c-2.7 0-5.2.1-7.4.4.3-2.2.4-4.7.4-7.4v-4.3l-6 3.8v.5c0 7.7-1.2 12.8-3.7 15.3l.7.7.7.7C6.2 33.2 11.3 32 19 32h.6l3.8-6H19z" class="stshockcolor" data-st="fill:#BBC4C9;;" coriginal="rgb(187,196,201)" colortype="2" awdzp="2"></path><path fill="rgb(35,31,32)" d="M3.7 35.7l-1.4-1.4C4.8 31.8 6 26.7 6 19v-.6l14.1-8.9c-.4-.7-.4-1.6.2-2.3L24.5 2l1.6 1.2-4.3 5.3 7.6 7.6 5.3-4.3 1.2 1.6-5.3 4.3c-.6.5-1.6.6-2.3.2L19.6 32H19c-7.7 0-12.8 1.2-15.3 3.7zm11.2-14l1.4 1.4-8 8c2.7-.7 6.1-1.1 10.1-1.1l8.5-13.5-5.5-5.4L8 19.6c0 4.1-.4 7.5-1.2 10.2l8.1-8.1z" class="st1" opacity=".8" coriginal="rgb(35,31,32)" colortype="12" awdzp="12"></path></svg>