<svg xmlns="http://www.w3.org/2000/svg" width="32" height="32" viewBox="0 0 38 38" id="svgid22" repair="1" xmlns:xlink="http://www.w3.org/1999/xlink"><path id="MTBteHk1MzcxMDAwMDAwMDAwMHh6czU5NA" fill="rgb(247,199,104)" d="M10 30h18.5c1.93 0 3.5 1.57 3.5 3.5 0 .758-.247 1.485-.714 2.104l-.3.396H10v-6zm5-27c-2 2.442-3 4.343-3 6s1.343 3 3 3 3-1.343 3-3-1-3.558-3-6zm8 4c-2 2.442-3 4.343-3 6s1.343 3 3 3 3-1.343 3-3-1-3.558-3-6zM10 19v-2c0-1.654 1.346-3 3-3h4c1.654 0 3 1.346 3 3v1.17c.313-.11.65-.17 1-.17h4c1.654 0 3 1.346 3 3v2h-8v-4H10z" class="stshockcolor" data-st="fill:#F7C768;;" coriginal="rgb(247,199,104)" colortype="4" awdzp="4"></path><path fill="rgb(35,31,32)" d="M15 6.377c.67 1.07 1 1.936 1 2.623 0 .55-.45 1-1 1s-1-.45-1-1c0-.687.33-1.553 1-2.623M15 3c-2 2.442-3 4.343-3 6s1.343 3 3 3 3-1.343 3-3-1-3.558-3-6zm8 7.377c.67 1.07 1 1.936 1 2.623 0 .55-.448 1-1 1s-1-.45-1-1c0-.687.33-1.553 1-2.623M23 7c-2 2.442-3 4.343-3 6s1.343 3 3 3 3-1.343 3-3-1-3.558-3-6zm7.986 29H7.014l-.3-.396C6.247 34.984 6 34.258 6 33.5 6 31.57 7.57 30 9.5 30H18V17c0-.55-.45-1-1-1h-4c-.55 0-1 .45-1 1v11h-2V17c0-1.654 1.346-3 3-3h4c1.654 0 3 1.346 3 3v1.17c.313-.11.65-.17 1-.17h4c1.654 0 3 1.346 3 3v2.05c1.342-.696 3.013-1.05 5-1.05h1v1c0 3.632-1.184 6.207-3.474 7.648.892.635 1.474 1.677 1.474 2.852 0 .758-.247 1.484-.714 2.103l-.3.397zM8.09 34h21.82c.053-.145.09-.312.09-.5 0-.827-.673-1.5-1.5-1.5h-19c-.827 0-1.5.673-1.5 1.5 0 .188.037.356.09.5zM20 30h4.03c.148-2.273.813-4.08 1.97-5.396V21c0-.552-.448-1-1-1h-4c-.552 0-1 .448-1 1v9zm11.962-5.962c-3.73.287-5.637 2.194-5.924 5.924 3.73-.287 5.637-2.194 5.924-5.924z" class="st0" opacity=".8" coriginal="rgb(35,31,32)" colortype="12" awdzp="12"></path></svg>