<svg xmlns="http://www.w3.org/2000/svg" width="32" height="32" viewBox="0 0 38 38" id="svgid8" repair="1" xmlns:xlink="http://www.w3.org/1999/xlink"><path id="MTBteHk4NDkxMDAwMDAwMDAwMHh6czQxNg" fill="rgb(187,196,201)" d="M26 4h6c1.1 0 2 .9 2 2v26c0 1.1-.9 2-2 2h-6V4zm-8 30h6V4h-6v30zM14 4h-2v30h2V4z" class="stshockcolor" data-st="fill:#BBC4C9;;" coriginal="rgb(187,196,201)" colortype="2" awdzp="2"></path><path fill="rgb(35,31,32)" d="M32 4H6c-1.1 0-2 .9-2 2v10h2V6h26v26H6V20h20.6L24 22.5l1.4 1.4 5-5-5-5-1.4 1.6 2.5 2.5H4v14c0 1.1.9 2 2 2h26c1.1 0 2-.9 2-2V6c0-1.1-.9-2-2-2z" class="st1" opacity=".8" coriginal="rgb(35,31,32)" colortype="12" awdzp="12"></path></svg>