<svg xmlns="http://www.w3.org/2000/svg" width="32" height="32" viewBox="0 0 38 38" id="svgid2" repair="1" xmlns:xlink="http://www.w3.org/1999/xlink"><path id="MTBteHk3OTcxMDAwMDAwMDAwMHh6czQ2NA" fill="rgb(133,222,216)" d="M20 2.038V4.05c1.407.07 2.724.28 3.926.625C26.146 5.312 28 7.458 28 9.95c0 2.667-1.616 4.95-5.01 6.858-1.06.595-1.985 1.347-2.666 1.972-.092.084-.204.243-.324.43v16.712c3.472-.484 6.4-3.312 7.27-4.236 1.854-1.964 6.727-9.98 6.727-16.388 0-7.652-5.587-12.874-13.997-13.26z" class="stshockcolor" data-st="fill:#85DED8;;" coriginal="rgb(133,222,216)" colortype="3" awdzp="3"></path><path fill="rgb(35,31,32)" d="M23.668 28.75C22.998 30.516 21.336 32 19 32s-3.997-1.485-4.668-3.25l1.862-.697C16.588 29.12 17.574 30 19 30c1.425 0 2.412-.88 2.807-1.947l1.86.698zM10.068 20s-.512 3.44 1.29 4.953c1.808 1.517 4.574.508 4.574.508s-.192-2.25-2-3.82C12.128 20.067 10.067 20 10.067 20zm14 1.635c-1.808 1.572-2 3.826-2 3.826s2.766 1.01 4.573-.5c1.81-1.52 1.3-4.96 1.3-4.96s-2.06.066-3.864 1.638zM19 2C10.03 2 4.004 7.344 4.004 15.297c0 1.512.277 3.113.716 4.703h2.076c-.482-1.608-.792-3.222-.792-4.703C6.004 8.435 11.104 4 19 4c7.895 0 12.996 4.435 12.996 11.297 0 5.583-4.332 13.056-6.18 15.017C24.136 32.096 21.462 34 19 34s-5.135-1.904-6.815-3.687C11.03 29.09 8.91 25.72 7.48 22H5.357c1.583 4.4 4.14 8.38 5.372 9.686C11.68 32.698 15.1 36 19 36s7.316-3.302 8.27-4.314c1.854-1.964 6.727-9.98 6.727-16.388C33.997 7.344 27.97 2 19 2zm-1.324 16.78c-1.037-.952-2.646-2.2-4.423-2.737l-.58 1.914c1.492.45 2.927 1.632 3.65 2.296l1.353-1.473zm7.65-.823l-.58-1.914c-1.775.537-3.385 1.785-4.422 2.737l1.352 1.473c.723-.664 2.16-1.845 3.65-2.296z" class="st0" opacity=".8" coriginal="rgb(35,31,32)" colortype="12" awdzp="12"></path></svg>