<svg xmlns="http://www.w3.org/2000/svg" width="32" height="32" viewBox="0 0 38 38" id="svgid23" repair="1" xmlns:xlink="http://www.w3.org/1999/xlink"><path fill="rgb(255,216,120)" d="M32 19c0 7.18-5.82 13-13 13S6 26.18 6 19 11.82 6 19 6s13 5.82 13 13z" class="st0 stshockcolor" data-st="fill:#FFD878;" coriginal="rgb(255,216,120)" colortype="1" awdzp="1"></path><path fill="rgb(35,31,32)" d="M19 2C9.626 2 2 9.626 2 19c0 3.307.964 6.386 2.604 9h2.424C5.136 25.49 4 22.38 4 19c0-2.942.864-5.68 2.334-8H12v17h-2v2h13.5c3.584 0 6.5-2.69 6.5-6 0-2.417-1.56-4.498-3.794-5.448C27.306 17.545 28 16.104 28 14.5c0-3.033-2.468-5.5-5.5-5.5H7.85C10.6 5.94 14.574 4 19 4c8.27 0 15 6.73 15 15s-6.73 15-15 15c-3.923 0-7.488-1.526-10.164-4H6.062c3.12 3.665 7.758 6 12.938 6 9.374 0 17-7.626 17-17S28.374 2 19 2zm-5 26V11h2v17h-2zm4 0v-8h1.5c2.48 0 4.5 1.794 4.5 4s-2.02 4-4.5 4H18zm10-4c0 1.928-1.542 3.54-3.587 3.917C25.4 26.864 26 25.497 26 24s-.6-2.864-1.587-3.917C26.458 20.46 28 22.073 28 24zm-2-9.5c0 1.84-1.434 3.338-3.24 3.474.774-.948 1.24-2.157 1.24-3.474 0-1.317-.466-2.526-1.24-3.474C24.565 11.162 26 12.66 26 14.5zm-4 0c0 1.93-1.57 3.5-3.5 3.5H18v-7h.5c1.93 0 3.5 1.57 3.5 3.5z" class="st1" opacity=".8" coriginal="rgb(35,31,32)" colortype="12" awdzp="12"></path></svg>