<svg xmlns="http://www.w3.org/2000/svg" width="32" height="32" viewBox="0 0 38 38" id="svgid5" repair="1" xmlns:xlink="http://www.w3.org/1999/xlink"><path id="MTBteHk3OTQxMDAwMDAwMDAwMHh6czg4Nw" fill="rgb(255,175,110)" d="M34 18.756V34H22v-8h-6v8h-4V14.31l7-3.89 15 8.336zm0-2.284V6h-6v7.14l6 3.332z" class="stshockcolor" data-st="fill:#FFAF6E;;" coriginal="rgb(255,175,110)" colortype="5" awdzp="5"></path><path fill="rgb(35,31,32)" d="M34 14.19V6h-6v2h4v5.08L19 5.86.51 16.13l.98 1.74L19 8.14l17.51 9.73.98-1.74L34 14.19zM32 32h-8v-8H14v8H6V17.653l-2 1.11V34h12v-8h6v8h12V18.764l-2-1.11V32z" class="st0" opacity=".8" coriginal="rgb(35,31,32)" colortype="12" awdzp="12"></path></svg>