<svg xmlns="http://www.w3.org/2000/svg" width="32" height="32" viewBox="0 0 38 38" id="svgid16" repair="1" xmlns:xlink="http://www.w3.org/1999/xlink"><circle cx="14" cy="15" r="8" fill="rgb(133,222,216)" class="st0" coriginal="rgb(133,222,216)" colortype="3" awdzp="3"></circle><circle cx="24" cy="15" r="8" fill="rgb(255,189,216)" class="st1" coriginal="rgb(255,189,216)" colortype="0" awdzp="0"></circle><circle cx="19" cy="24" r="8" fill="rgb(247,199,104)" class="st2" coriginal="rgb(247,199,104)" colortype="4" awdzp="4"></circle><path fill="rgb(142,165,222)" d="M16 15c0 .5.1 1 .2 1.5.8-.3 1.8-.5 2.8-.5 1 0 2 .2 2.8.5.1-.5.2-1 .2-1.5 0-2.5-1.2-4.8-3-6.2-1.8 1.4-3 3.7-3 6.2z" class="st3" coriginal="rgb(142,165,222)" colortype="8" awdzp="8"></path><path fill="rgb(125,212,127)" d="M19 21.2c-1.4-1.2-2.5-2.8-2.8-4.7-2.5 1-4.5 3.2-5 5.9.8.4 1.8.6 2.8.6 1.9 0 3.6-.7 5-1.8z" class="st4" coriginal="rgb(125,212,127)" colortype="11" awdzp="11"></path><path fill="rgb(255,135,135)" d="M21.8 16.5c-.4 1.9-1.4 3.5-2.8 4.7 1.4 1.1 3.1 1.8 5 1.8 1 0 2-.2 2.8-.5-.5-2.8-2.4-5-5-6z" class="st5" coriginal="rgb(255,135,135)" colortype="7" awdzp="7"></path><path id="MTBteHk3NDEwMDAwMDAwMDAweHpzNDEw" fill="rgb(35,31,32)" d="M16.2 16.5c.4 1.9 1.4 3.5 2.8 4.7 1.4-1.2 2.5-2.8 2.8-4.7-.8-.3-1.8-.5-2.8-.5-1 0-2 .2-2.8.5z" class="stshockcolor" data-st="fill:#231F20;;" coriginal="rgb(35,31,32)" colortype="12" awdzp="12"></path><path fill="rgb(35,31,32)" d="M31 24.8C30.6 31 25.4 36 19 36S7.4 31 7 24.8C4 22.6 2 19 2 15 2 8.4 7.4 3 14 3c1.8 0 3.5.4 5 1.1 1.5-.7 3.2-1.1 5-1.1 6.6 0 12 5.4 12 12 0 4-2 7.6-5 9.8zm3-9.8c0-5.5-4.5-10-10-10-1.8 0-3.5.5-5 1.3-1.5-.8-3.2-1.3-5-1.3C8.5 5 4 9.5 4 15c0 3.7 2 6.9 5 8.7v.3c0 5.5 4.5 10 10 10s10-4.5 10-10v-.3c3-1.8 5-5 5-8.7z" class="st7" opacity=".8" coriginal="rgb(35,31,32)" colortype="12" awdzp="12"></path></svg>