<svg xmlns="http://www.w3.org/2000/svg" width="32" height="32" viewBox="0 0 38 38" id="svgid11" repair="1" xmlns:xlink="http://www.w3.org/1999/xlink"><path id="MTBteHk4OTgxMDAwMDAwMDAwMHh6czIzNg" fill="rgb(247,199,104)" d="M38 20v9c0 1.654-1.346 3-3 3h-7V20h10zM16 32h10V20H16v12zM4 32h10V20H4v12z" class="stshockcolor" data-st="fill:#F7C768;;" coriginal="rgb(247,199,104)" colortype="4" awdzp="4"></path><path fill="rgb(35,31,32)" d="M35 32H3c-1.654 0-3-1.346-3-3v-9h2v9c0 .552.45 1 1 1h9v-4h2v4h10v-4h2v4h9c.552 0 1-.448 1-1v-9h2v9c0 1.654-1.346 3-3 3zm3-14h-2V9c0-.55-.448-1-1-1h-9v4h-2V8H14v4h-2V8H3c-.55 0-1 .45-1 1v9H0V9c0-1.654 1.346-3 3-3h32c1.654 0 3 1.346 3 3v9zm-28-4H4v2h4.072C6.924 17.993 6 20.857 6 24h2c0-2.98.92-5.617 2-7.317V14zm12 0h-6v2h4.072C18.924 17.993 18 20.857 18 24h2c0-2.98.92-5.617 2-7.317V14zm12 0h-6v2h4.072C30.924 17.993 30 20.857 30 24h2c0-2.98.92-5.617 2-7.317V14z" class="st0" opacity=".8" coriginal="rgb(35,31,32)" colortype="12" awdzp="12"></path></svg>