<svg xmlns="http://www.w3.org/2000/svg" width="32" height="32" viewBox="0 0 38 38" id="svgid13" repair="1" xmlns:xlink="http://www.w3.org/1999/xlink"><path id="MTBteHkzODEwMDAwMDAwMDAweHpzMTc4" fill="rgb(255,135,135)" d="M18 36H8V16h10v20zm2-20v20h11c3.96 0 5-3.27 5-5V16H20z" class="stshockcolor" data-st="fill:#FF8787;;" coriginal="rgb(255,135,135)" colortype="7" awdzp="7"></path><path fill="rgb(35,31,32)" d="M33 10h-3.88c.53-.73.88-1.71.88-3 0-3.96-3.27-5-5-5s-5 1.04-5 5v3h-2V7c0-3.96-3.27-5-5-5S8 3.04 8 7c0 1.29.35 2.27.88 3H5c-2.2 0-3 1.79-3 3v5h14v16H7.01C6.5 33.99 4 33.82 4 31V20H2v11c0 3.96 3.27 5 5 5h24c3.96 0 5-3.27 5-5V13c0-2.2-1.79-3-3-3zm-17 6H4v-2.99c.01-.46.19-1.01 1-1.01h11v4zm0-6h-2.99C12.5 9.99 10 9.82 10 7s2.5-2.99 2.99-3c.51.01 3.01.18 3.01 3v3zm4 24h-2V18h2v16zm0-18h-2v-4h2v4zm2-9c0-2.82 2.5-2.99 2.99-3 .51.01 3.01.18 3.01 3s-2.5 2.99-3.01 3H22V7zm12 23.99c-.01.51-.18 3.01-3 3.01h-9V18h10v-2H22v-4h10.99c.46.01 1.01.19 1.01 1v17.99z" class="st0" opacity=".8" coriginal="rgb(35,31,32)" colortype="12" awdzp="12"></path></svg>