<svg xmlns="http://www.w3.org/2000/svg" width="32" height="32" viewBox="0 0 38 38" id="svgid21" repair="1" xmlns:xlink="http://www.w3.org/1999/xlink"><path id="MTBteHkxMDYxMDAwMDAwMDAwMHh6czEwNw" fill="rgb(187,196,201)" d="M37.747 17h-13.01C25.53 18.135 26 19.513 26 21c0 3.86-3.14 7-7 7s-7-3.14-7-7c0-1.487.47-2.865 1.264-4H5.607C4.72 17 4 17.72 4 18.606V32h34V19c0-.783-.096-1.438-.253-2z" class="stshockcolor" data-st="fill:#BBC4C9;;" coriginal="rgb(187,196,201)" colortype="2" awdzp="2"></path><path fill="rgb(35,31,32)" d="M34.453 13.67c-1.16-.505-5.043-2.286-6.34-2.882l-.55-2.046c-.22-.82-.733-2.742-3.5-2.742H13.938c-2.767 0-3.227 1.716-3.502 2.74l-.817 3.05 1.93.518.81-3.05C12.62 8.32 12.7 8 13.93 8h10.13c1.18 0 1.35.432 1.57 1.26l.79 2.952s5.82 2.676 7.23 3.292C34.915 16.054 36 16.527 36 19v11H2v-4h9.522c1.616 2.41 4.365 4 7.478 4s5.86-1.59 7.48-4H34v-2h-6.525c.334-.94.525-1.947.525-3 0-4.962-4.037-9-9-9-4.962 0-9 4.038-9 9 0 1.053.19 2.06.525 3H2v-5c0-2.472 1.232-3.01 2.536-3.58C6.263 14.668 8 13.823 8 13.823V10H6v2.565c-.496.232-1.29.598-2.264 1.023C2.34 14.198 0 15.218 0 19v13h38V19c0-3.783-2.134-4.713-3.547-5.33zM19 14c3.86 0 7 3.14 7 7s-3.14 7-7 7-7-3.14-7-7 3.14-7 7-7z" class="st0" opacity=".8" coriginal="rgb(35,31,32)" colortype="12" awdzp="12"></path></svg>