<svg xmlns="http://www.w3.org/2000/svg" width="32" height="32" viewBox="0 0 38 38" id="svgid20" repair="1" xmlns:xlink="http://www.w3.org/1999/xlink"><path id="MTBteHkzODgxMDAwMDAwMDAwMHh6czU0NQ" fill="rgb(255,175,110)" d="M31.5 30.3l-7.4 4.3-10-17.3v-.2l7.3-4.2 10.1 17.4zM8.9 19.9l-1.7-1-1 1.7 1.7 1 1-1.7zM15.7 8H4v2h6.3l-5.4 3.1 1 1.7 5.4-3.1-3.1 5.4 1.7 1L15.7 8zM4.1 15.9l-1-1.7-1.7 1 1 1.7 1.7-1zM2 8H0v2h2V8z" class="stshockcolor" data-st="fill:#FFAF6E;;" coriginal="rgb(255,175,110)" colortype="5" awdzp="5"></path><path fill="rgb(35,31,32)" d="M29 13.1l-1.7 1 7.1 12.2-9.5 5.5-8.1-14L28 11.4l-.9-1.6-.1-.1c-2.3-1.8-5.3-2.1-8-1L17.4 6h-2.3l2.2 3.7c-2.4 1.7-3.6 4.5-3.2 7.4v.2l10 17.3 13-7.5-8.1-14zm-9.9-2.2c.9-.5 2-.9 3.2-.9.9 0 1.9.2 2.8.7L16 16c0-2.4 1.6-4.2 3.1-5.1z" class="st1" opacity=".8" coriginal="rgb(35,31,32)" colortype="12" awdzp="12"></path></svg>