<svg xmlns="http://www.w3.org/2000/svg" width="32" height="32" viewBox="0 0 38 38" id="svgid17" repair="1" xmlns:xlink="http://www.w3.org/1999/xlink"><path id="MTBteHk0MTAwMDAwMDAwMDB4enM1ODg" fill="rgb(142,165,222)" d="M26.7 8.4c-1.9 1-4.4 1.6-7.7 1.6-4.7 0-7.4 2.4-8.4 7.8 1.2-1.8 2.7-1.8 3.6-1.8 1.8 0 3.8.8 3.8 6h2c0-5.2 2-6 3.8-6 1.5 0 4.2 0 4.2 10h4v-1c0-3.9 0-12.4-5.3-16.6z" class="stshockcolor" data-st="fill:#8EA5DE;;" coriginal="rgb(142,165,222)" colortype="8" awdzp="8"></path><path fill="rgb(35,31,32)" d="M21 24.8c0 .5-.9 1.2-2 1.2s-2-.7-2-1.2.9-.8 2-.8 2 .4 2 .8zm-5-.4c.6 0 1.1-.9 1.1-1.9s-.5-1.9-1.1-1.9c-.6 0-1.1.9-1.1 1.9s.5 1.9 1.1 1.9zm6 0c.6 0 1.1-.9 1.1-1.9s-.5-1.9-1.1-1.9-1.1.9-1.1 1.9.5 1.9 1.1 1.9zm3 1.6h-2c0 2.2-1.8 4-4 4s-4-1.8-4-4h-2c0 3.3 2.7 6 6 6s6-2.7 6-6zm7-2c0-3.7-.3-10.1-3.8-14.2 2-1.1 3.6-2.6 4.9-4.4l-1.6-1.1c-1.3 1.8-3.5 3.9-7.1 5C29.2 12 30 18.9 30 25v1h2.5c-1.5 4.1-5.7 8-13.5 8-7.9 0-12-3.9-13.5-8H8v-1C8 17.1 9.3 8 19 8c4.9 0 8.6-1.6 10.8-4.9L28.2 2c-1.9 2.7-4.9 4-9.2 4-3.5 0-6.1 1-8 2.6L8.7 6.3 7.3 7.7 9.6 10C6.3 14.1 6 20.4 6 24H2.9l.3 1.2C4.4 30.4 9.2 36 19 36s14.6-5.6 15.8-10.8l.3-1.2H32z" class="st1" opacity=".8" coriginal="rgb(35,31,32)" colortype="12" awdzp="12"></path></svg>