<svg xmlns="http://www.w3.org/2000/svg" width="32" height="32" viewBox="0 0 38 38" id="svgid9" repair="1" xmlns:xlink="http://www.w3.org/1999/xlink"><path id="MTBteHk1OTgxMDAwMDAwMDAwMHh6czUzNA" fill="rgb(255,135,135)" d="M29 20H0v7c0 .5.5 1 1 1h5.2c-.1-.3-.2-.6-.2-1 0-1.7 1.4-3 3-3s3 1.3 3 3c0 .4-.1.7-.2 1h14.4c-.1-.3-.2-.6-.2-1 0-1.7 1.3-3 3-3s3 1.3 3 3v-4c0-2.8-2.5-3-3-3z" class="stshockcolor" data-st="fill:#FF8787;;" coriginal="rgb(255,135,135)" colortype="7" awdzp="7"></path><path fill="rgb(35,31,32)" d="M33 16h-3.5l-3.7-5.5c0-.1-1.6-2.5-4.8-2.5H11c-2.6 0-3.8 2.5-3.9 2.5L4.4 16H3c-2.2 0-3 1.8-3 3v8c0 .5.5 1 1 1h3.1c.5 2.3 2.5 4 4.9 4 2.8 0 5-2.2 5-5s-2.2-5-5-5c-2.4 0-4.4 1.7-4.9 4H2v-7c0-.5.2-1 1-1h30c.5 0 3 .2 3 3v5h-2.1c-.5-2.3-2.5-4-4.9-4s-4.4 1.7-4.9 4H16v2h8.1c.5 2.3 2.5 4 4.9 4s4.4-1.7 4.9-4H37c.5 0 1-.5 1-1v-6c0-4-3.3-5-5-5zM9 24c1.6 0 3 1.3 3 3s-1.4 3-3 3-3-1.3-3-3 1.4-3 3-3zm5-8H6.6l2.3-4.5S9.7 10 11 10h3v6zm2 0v-6h5c2.1 0 3.1 1.5 3.2 1.5l3 4.5H16zm13 14c-1.7 0-3-1.3-3-3s1.3-3 3-3 3 1.3 3 3-1.3 3-3 3z" class="st1" opacity=".8" coriginal="rgb(35,31,32)" colortype="12" awdzp="12"></path></svg>